<svg xmlns="http://www.w3.org/2000/svg" viewBox="0 0 215.92 42.19"><title>スポカレ</title><g class="logo" data-name="logo"><g id="layer_1-2" data-name="layer_1"><path class="cls-1" d="M100.31 1.7A6.63 6.63 0 0 0 94 7h10.7a4.35 4.35 0 0 0-4.39-5.3zM194.82 14.06l-11.69 6.49L186.75 0h-14.06l-5.15 29.21-2.29 12.98 15.59-8.65 35.08-19.48h-21.1zM49.22 42.19h10.55L70.52 21.1H59.98L49.22 42.19zM91.62 21.1l3.31 21.09h10.55l-3.31-21.09H91.62z"></path><path class="cls-1" d="M108.16 7h-3.46a6.63 6.63 0 0 1-6.27 5.33A4.35 4.35 0 0 1 94 7h-3.42l1.24-7H77.76l-1.24 7H58.94l-1.86 10.58h17.58l-4.34 24.61h14.06l4.34-24.61h17.58zM42.6 0H3.92L2.06 10.55H21.4L0 42.19h14.06l9.51-14.06 4.56 14.06h14.06l-9.1-28.13L42.6 0zM141.59 7.03l3-7.03H130.5l-3 7.03h-8.79l-1.86 10.55h6.16l-10.49 24.61h14.05l10.51-24.61h7.89l-1.85 10.55h-3.52l1.04 14.06h14.06l6.2-35.16h-19.31z"></path></g></g></svg>