<?xml version="1.0" encoding="UTF-8"?><svg id="_レイヤー_2" xmlns="http://www.w3.org/2000/svg" width="174.73" height="174.73" viewBox="0 0 174.73 174.73"><defs><style>.cls-1{fill:#fff;}.cls-2{fill:#bf0000;}</style></defs><g id="_レイヤー_2-2"><circle class="cls-2" cx="87.36" cy="87.36" r="87.36"/><g id="_レイヤー_1-2"><circle class="cls-2" cx="87.36" cy="87.36" r="73.16"/><g id="layer_1-2"><path class="cls-1" d="m77.64,43.18h-38.68l-1.86,10.55h19.34l-21.4,31.64h14.06l9.51-14.06,4.56,14.06h14.06l-9.1-28.13s9.51-14.06,9.51-14.06Z"/></g><g id="layer_1-2-2"><path class="cls-1" d="m131.89,44.89c-3.08.09-5.69,2.28-6.31,5.3h10.7c.53-2.34-.95-4.67-3.29-5.2-.36-.08-.73-.12-1.1-.1Zm-51.09,40.49h10.55l10.75-21.09h-10.54l-10.76,21.09Zm42.4-21.09l3.31,21.09h10.55l-3.31-21.09h-10.55Z"/><path class="cls-1" d="m139.74,50.19h-3.46c-.6,3.02-3.2,5.22-6.27,5.33-2.4.11-4.43-1.75-4.54-4.15-.02-.4.02-.79.11-1.18h-3.42l1.24-7h-14.06l-1.24,7h-17.58l-1.86,10.58h17.58l-4.34,24.61h14.06l4.34-24.61h17.58s1.86-10.58,1.86-10.58Z"/></g><g id="layer_1-2-3"><path class="cls-1" d="m64.4,96.35l3-7.03h-14.09l-3,7.03h-8.79l-1.86,10.55h6.16l-10.49,24.61h14.05l10.51-24.61h7.89l-1.85,10.55h-3.52l1.04,14.06h14.06l6.2-35.16h-19.31Z"/></g><g id="layer_1-2-4"><path class="cls-1" d="m118.64,103.38l-11.69,6.49,3.62-20.55h-14.06l-5.15,29.21-2.29,12.98,15.59-8.65,35.08-19.48s-21.1,0-21.1,0Z"/></g></g></g></svg>