<?xml version="1.0" encoding="UTF-8"?><svg id="_レイヤー_2" xmlns="http://www.w3.org/2000/svg" width="58.94" height="42.19" viewBox="0 0 58.94 42.19"><g id="_レイヤー_1-2"><g id="layer_1-2"><path d="m51.09,1.7c-3.08.09-5.69,2.28-6.31,5.3h10.7c.53-2.34-.95-4.67-3.29-5.2-.36-.08-.73-.12-1.1-.1ZM0,42.19h10.55l10.75-21.09h-10.54L0,42.19Zm42.4-21.09l3.31,21.09h10.55l-3.31-21.09s-10.55,0-10.55,0Z"/><path d="m58.94,7h-3.46c-.6,3.02-3.2,5.22-6.27,5.33-2.4.11-4.43-1.75-4.54-4.15-.02-.4.02-.79.11-1.18h-3.42l1.24-7h-14.06l-1.24,7H9.72l-1.86,10.58h17.58l-4.34,24.61h14.06l4.34-24.61h17.58l1.86-10.58Z"/></g></g></svg>